# 3ds Max Wavefront OBJ Exporter v0.97b - (c)2007 guruware
# File Created: 14.02.2022 19:51:27

#
# object Cylinder_Cylinder
#

v  0.0188 1.1639 -0.0817
v  0.0000 1.1639 -0.0884
v  0.0000 1.4602 -0.0758
v  0.0193 1.4602 -0.0700
v  0.0347 1.1639 -0.0625
v  0.0356 1.4602 -0.0536
v  0.0454 1.1639 -0.0338
v  0.0465 1.4602 -0.0290
v  0.0491 1.1639 -0.0000
v  0.0504 1.4602 -0.0000
v  0.0454 1.1639 0.0338
v  0.0465 1.4602 0.0290
v  0.0347 1.1639 0.0625
v  0.0356 1.4602 0.0536
v  0.0188 1.1639 0.0817
v  0.0193 1.4602 0.0700
v  0.0000 1.1639 0.0884
v  0.0000 1.4602 0.0758
v  -0.0188 1.1639 0.0817
v  -0.0193 1.4602 0.0700
v  -0.0347 1.1639 0.0625
v  -0.0356 1.4602 0.0536
v  -0.0454 1.1639 0.0338
v  -0.0465 1.4602 0.0290
v  -0.0491 1.1639 -0.0000
v  -0.0504 1.4602 -0.0000
v  -0.0454 1.1639 -0.0338
v  -0.0465 1.4602 -0.0290
v  -0.0347 1.1639 -0.0625
v  -0.0356 1.4602 -0.0536
v  -0.0188 1.1639 -0.0817
v  -0.0193 1.4602 -0.0700
v  0.0607 0.0000 -0.0000
v  0.0561 0.0000 0.0328
v  0.0000 0.0000 -0.0000
v  0.0000 0.0000 -0.0856
v  -0.0232 0.0000 -0.0791
v  -0.0230 0.3562 -0.0760
v  0.0000 0.3562 -0.0823
v  -0.0429 0.0000 -0.0605
v  -0.0425 0.3562 -0.0582
v  -0.0561 0.0000 -0.0328
v  -0.0555 0.3562 -0.0315
v  -0.0607 0.0000 -0.0000
v  -0.0601 0.3562 -0.0000
v  -0.0561 0.0000 0.0328
v  -0.0555 0.3562 0.0315
v  -0.0429 0.0000 0.0605
v  -0.0425 0.3562 0.0582
v  -0.0232 0.0000 0.0791
v  -0.0230 0.3562 0.0760
v  0.0000 0.0000 0.0856
v  0.0000 0.3562 0.0823
v  0.0232 0.0000 0.0791
v  0.0230 0.3562 0.0760
v  0.0429 0.0000 0.0605
v  0.0425 0.3562 0.0582
v  0.0555 0.3562 0.0315
v  0.0601 0.3562 -0.0000
v  0.0561 0.0000 -0.0328
v  0.0555 0.3562 -0.0315
v  0.0429 0.0000 -0.0605
v  0.0425 0.3562 -0.0582
v  0.0232 0.0000 -0.0791
v  0.0230 0.3562 -0.0760
v  -0.0248 0.6950 -0.0848
v  0.0000 0.6950 -0.0918
v  -0.0458 0.6950 -0.0649
v  -0.0598 0.6950 -0.0351
v  -0.0648 0.6950 -0.0000
v  -0.0598 0.6950 0.0351
v  -0.0458 0.6950 0.0649
v  -0.0248 0.6950 0.0848
v  0.0000 0.6950 0.0918
v  0.0248 0.6950 0.0848
v  0.0458 0.6950 0.0649
v  0.0598 0.6950 0.0351
v  0.0648 0.6950 -0.0000
v  0.0598 0.6950 -0.0351
v  0.0458 0.6950 -0.0649
v  0.0248 0.6950 -0.0848
v  0.0000 1.4602 -0.0000
v  0.0640 1.4259 -0.2696
v  -0.0640 1.4259 -0.2696
v  -0.0640 1.4471 -0.2479
v  0.0640 1.4471 -0.2479
v  -0.0844 1.2236 -0.2479
v  -0.0853 1.4259 -0.2479
v  -0.0632 1.2236 -0.2696
v  -0.0642 1.4471 0.2301
v  -0.0853 1.4259 0.2301
v  0.0636 1.2011 -0.2479
v  -0.0641 1.2011 -0.2479
v  0.0645 1.2236 -0.2696
v  -0.0846 1.2236 0.2301
v  -0.0644 1.2011 0.2301
v  0.0640 1.4471 0.2301
v  -0.0642 1.4259 0.2511
v  0.0640 1.4259 0.2511
v  -0.0637 1.2236 0.2511
v  0.0646 1.2236 0.2511
v  0.0640 1.2011 0.2301
v  0.0851 1.4259 0.2301
v  0.0851 1.4259 -0.2479
v  0.0857 1.2236 -0.2479
v  0.0857 1.2236 0.2301
# 106 vertices

vn 0.5259 0.0220 -0.8503
vn 0.0000 0.0236 -0.9997
vn 0.0000 0.1284 -0.9917
vn 0.5775 0.1125 -0.8086
vn 0.8334 0.0185 -0.5524
vn 0.8612 0.0898 -0.5002
vn 0.9647 0.0154 -0.2630
vn 0.9693 0.0769 -0.2335
vn 0.9999 0.0142 -0.0000
vn 0.9973 0.0729 -0.0000
vn 0.9647 0.0154 0.2630
vn 0.9693 0.0769 0.2335
vn 0.8334 0.0185 0.5524
vn 0.8612 0.0898 0.5002
vn 0.5259 0.0220 0.8503
vn 0.5775 0.1125 0.8086
vn 0.0000 0.0236 0.9997
vn 0.0000 0.1284 0.9917
vn -0.5259 0.0220 0.8503
vn -0.5775 0.1125 0.8086
vn -0.8334 0.0185 0.5524
vn -0.8612 0.0898 0.5002
vn -0.9647 0.0154 0.2630
vn -0.9693 0.0769 0.2335
vn -0.9999 0.0142 -0.0000
vn -0.9973 0.0729 -0.0000
vn -0.9647 0.0154 -0.2630
vn -0.9693 0.0769 -0.2335
vn -0.8334 0.0185 -0.5524
vn -0.8612 0.0898 -0.5002
vn -0.5259 0.0220 -0.8503
vn -0.5775 0.1125 -0.8086
vn 0.9973 -0.0736 -0.0000
vn 0.9541 -0.0740 0.2901
vn 0.0000 -1.0000 -0.0000
vn 0.0000 -0.0799 -0.9968
vn -0.4888 -0.0782 -0.8689
vn -0.5004 -0.0086 -0.8658
vn 0.0000 -0.0093 -1.0000
vn -0.8034 -0.0755 -0.5906
vn -0.8129 -0.0073 -0.5823
vn -0.9541 -0.0740 -0.2901
vn -0.9587 -0.0064 -0.2844
vn -0.9973 -0.0736 -0.0000
vn -1.0000 -0.0061 -0.0000
vn -0.9541 -0.0740 0.2901
vn -0.9587 -0.0064 0.2844
vn -0.8034 -0.0755 0.5906
vn -0.8129 -0.0073 0.5823
vn -0.4888 -0.0782 0.8689
vn -0.5004 -0.0086 0.8658
vn 0.0000 -0.0799 0.9968
vn 0.0000 -0.0093 1.0000
vn 0.4888 -0.0782 0.8689
vn 0.5004 -0.0086 0.8658
vn 0.8034 -0.0755 0.5906
vn 0.8129 -0.0073 0.5823
vn 0.9587 -0.0064 0.2844
vn 1.0000 -0.0061 -0.0000
vn 0.9541 -0.0740 -0.2901
vn 0.9587 -0.0064 -0.2844
vn 0.8034 -0.0755 -0.5906
vn 0.8129 -0.0073 -0.5823
vn 0.4888 -0.0782 -0.8689
vn 0.5004 -0.0086 -0.8658
vn -0.5214 -0.0052 -0.8533
vn 0.0000 -0.0089 -1.0000
vn -0.8268 0.0016 -0.5625
vn -0.9623 0.0066 -0.2720
vn -1.0000 0.0083 -0.0000
vn -0.9623 0.0066 0.2720
vn -0.8268 0.0016 0.5625
vn -0.5214 -0.0052 0.8533
vn 0.0000 -0.0089 1.0000
vn 0.5214 -0.0052 0.8533
vn 0.8268 0.0016 0.5625
vn 0.9623 0.0066 0.2720
vn 1.0000 0.0083 -0.0000
vn 0.9623 0.0066 -0.2720
vn 0.8268 0.0016 -0.5625
vn 0.5214 -0.0052 -0.8533
vn 0.0000 1.0000 -0.0000
vn 0.1315 0.0861 -0.9876
vn -0.1409 0.0882 -0.9861
vn -0.6105 0.7729 -0.1730
vn 0.6109 0.7726 -0.1731
vn -0.9951 -0.0905 -0.0403
vn -0.9954 0.0881 -0.0387
vn -0.1285 -0.0870 -0.9879
vn -0.6125 0.7711 0.1738
vn -0.9954 0.0882 0.0380
vn 0.1454 -0.9885 -0.0423
vn -0.1474 -0.9882 -0.0407
vn 0.1389 -0.0851 -0.9866
vn -0.9951 -0.0905 0.0393
vn -0.1476 -0.9882 0.0410
vn 0.6130 0.7706 0.1741
vn -0.1342 0.0849 0.9873
vn 0.1269 0.0834 0.9884
vn -0.1270 -0.0848 0.9883
vn 0.1349 -0.0835 0.9873
vn 0.1458 -0.9884 0.0421
vn 0.9948 0.0937 0.0397
vn 0.9948 0.0937 -0.0398
vn 0.9951 -0.0914 -0.0384
vn 0.9951 -0.0915 0.0384
# 106 vertex normals

vt 0.7613 0.7739 0.0000
vt 0.7731 0.7739 0.0000
vt 0.7731 0.9613 0.0000
vt 0.7591 0.9613 0.0000
vt 0.7468 0.7739 0.0000
vt 0.7426 0.9613 0.0000
vt 0.7248 0.7739 0.0000
vt 0.7204 0.9613 0.0000
vt 0.6915 0.7739 0.0000
vt 0.6915 0.9613 0.0000
vt 0.6582 0.7739 0.0000
vt 0.6625 0.9613 0.0000
vt 0.6362 0.7739 0.0000
vt 0.6404 0.9613 0.0000
vt 0.6216 0.7739 0.0000
vt 0.6238 0.9613 0.0000
vt 0.6099 0.7739 0.0000
vt 0.6099 0.9613 0.0000
vt 0.5981 0.7739 0.0000
vt 0.5959 0.9613 0.0000
vt 0.5835 0.7739 0.0000
vt 0.5794 0.9613 0.0000
vt 0.5615 0.7739 0.0000
vt 0.5572 0.9613 0.0000
vt 0.5283 0.7739 0.0000
vt 0.5283 0.9613 0.0000
vt 0.4950 0.7739 0.0000
vt 0.4993 0.9613 0.0000
vt 0.4730 0.7739 0.0000
vt 0.4771 0.9613 0.0000
vt 0.4584 0.7739 0.0000
vt 0.4606 0.9613 0.0000
vt 0.4466 0.7739 0.0000
vt 0.4466 0.9613 0.0000
vt 0.9377 0.5969 0.0000
vt 0.9507 0.6288 0.0000
vt 0.8735 0.6367 0.0000
vt 0.4466 0.0378 0.0000
vt 0.4615 0.0378 0.0000
vt 0.4619 0.2631 0.0000
vt 0.4466 0.2631 0.0000
vt 0.4787 0.0378 0.0000
vt 0.4794 0.2631 0.0000
vt 0.5008 0.0378 0.0000
vt 0.5015 0.2631 0.0000
vt 0.5283 0.0378 0.0000
vt 0.5283 0.2631 0.0000
vt 0.5557 0.0378 0.0000
vt 0.5550 0.2631 0.0000
vt 0.5778 0.0378 0.0000
vt 0.5771 0.2631 0.0000
vt 0.5950 0.0378 0.0000
vt 0.5946 0.2631 0.0000
vt 0.6099 0.0378 0.0000
vt 0.6099 0.2631 0.0000
vt 0.6247 0.0378 0.0000
vt 0.6251 0.2631 0.0000
vt 0.6419 0.0378 0.0000
vt 0.6427 0.2631 0.0000
vt 0.6640 0.0378 0.0000
vt 0.6647 0.2631 0.0000
vt 0.6915 0.0378 0.0000
vt 0.6915 0.2631 0.0000
vt 0.7189 0.0378 0.0000
vt 0.7183 0.2631 0.0000
vt 0.7410 0.0378 0.0000
vt 0.7403 0.2631 0.0000
vt 0.7583 0.0378 0.0000
vt 0.7578 0.2631 0.0000
vt 0.7731 0.0378 0.0000
vt 0.7731 0.2631 0.0000
vt 0.4614 0.4774 0.0000
vt 0.4466 0.4774 0.0000
vt 0.4786 0.4774 0.0000
vt 0.5007 0.4774 0.0000
vt 0.5283 0.4774 0.0000
vt 0.5558 0.4774 0.0000
vt 0.5779 0.4774 0.0000
vt 0.5951 0.4774 0.0000
vt 0.6099 0.4774 0.0000
vt 0.6246 0.4774 0.0000
vt 0.6418 0.4774 0.0000
vt 0.6639 0.4774 0.0000
vt 0.6915 0.4774 0.0000
vt 0.7191 0.4774 0.0000
vt 0.7412 0.4774 0.0000
vt 0.7583 0.4774 0.0000
vt 0.7731 0.4774 0.0000
vt 0.8921 0.7215 0.0000
vt 0.8612 0.7181 0.0000
vt 0.7951 0.6115 0.0000
vt 0.8058 0.5822 0.0000
vt 0.8859 0.5552 0.0000
vt 0.9150 0.5711 0.0000
vt 0.9412 0.6911 0.0000
vt 0.9202 0.7120 0.0000
vt 0.8268 0.5613 0.0000
vt 0.8550 0.5518 0.0000
vt 0.8093 0.6764 0.0000
vt 0.7964 0.6445 0.0000
vt 0.9519 0.6618 0.0000
vt 0.8321 0.7022 0.0000
vt 0.8234 0.8859 0.0000
vt 0.8198 0.8608 0.0000
vt 0.8721 0.8616 0.0000
vt 0.8241 0.8358 0.0000
vt 0.8358 0.8147 0.0000
vt 0.8529 0.8008 0.0000
vt 0.8730 0.7961 0.0000
vt 0.8929 0.8013 0.0000
vt 0.9097 0.8158 0.0000
vt 0.9200 0.8873 0.0000
vt 0.9084 0.9084 0.0000
vt 0.9207 0.8372 0.0000
vt 0.9243 0.8623 0.0000
vt 0.8512 0.9218 0.0000
vt 0.8345 0.9073 0.0000
vt 0.8912 0.9223 0.0000
vt 0.8711 0.9270 0.0000
vt 0.4017 0.9617 0.0000
vt 0.2523 0.9617 0.0000
vt 0.2524 0.9415 0.0000
vt 0.4016 0.9415 0.0000
vt 0.8028 0.0607 0.0000
vt 0.9314 0.0622 0.0000
vt 0.9316 0.0453 0.0000
vt 0.8030 0.0438 0.0000
vt 0.2523 0.4975 0.0000
vt 0.2274 0.9415 0.0000
vt 0.2274 0.4975 0.0000
vt 0.1730 0.1383 0.0000
vt 0.0568 0.1408 0.0000
vt 0.0572 0.1242 0.0000
vt 0.1734 0.1217 0.0000
vt 0.0459 0.5033 0.0000
vt 0.0382 0.1411 0.0000
vt 0.0643 0.5028 0.0000
vt 0.4016 0.4975 0.0000
vt 0.2522 0.4779 0.0000
vt 0.4018 0.4779 0.0000
vt 0.7983 0.4500 0.0000
vt 0.9269 0.4515 0.0000
vt 0.9271 0.4351 0.0000
vt 0.7985 0.4336 0.0000
vt 0.1820 0.5164 0.0000
vt 0.0652 0.5189 0.0000
vt 0.1811 0.5003 0.0000
vt 0.4265 0.4975 0.0000
vt 0.4264 0.9415 0.0000
vt 0.4263 0.4631 0.0000
vt 0.2705 0.4631 0.0000
vt 0.2705 0.4451 0.0000
vt 0.4263 0.4451 0.0000
vt 0.1931 0.1378 0.0000
vt 0.2009 0.5000 0.0000
vt 0.2705 0.0328 0.0000
vt 0.4263 0.0328 0.0000
vt 0.4263 0.0502 0.0000
vt 0.2705 0.0502 0.0000
vt 0.1966 0.7285 0.0000
vt 0.0835 0.7285 0.0000
vt 0.0828 0.8422 0.0000
vt 0.1961 0.8422 0.0000
vt 0.0832 0.5777 0.0000
vt 0.1967 0.5777 0.0000
vt 0.1962 0.6916 0.0000
vt 0.0828 0.6916 0.0000
# 167 texture coords

g Cylinder_Cylinder
s 1
f 1/1/1 2/2/2 3/3/3 
f 3/3/3 4/4/4 1/1/1 
f 5/5/5 1/1/1 4/4/4 
f 4/4/4 6/6/6 5/5/5 
f 7/7/7 5/5/5 6/6/6 
f 6/6/6 8/8/8 7/7/7 
f 9/9/9 7/7/7 8/8/8 
f 8/8/8 10/10/10 9/9/9 
f 11/11/11 9/9/9 10/10/10 
f 10/10/10 12/12/12 11/11/11 
f 13/13/13 11/11/11 12/12/12 
f 12/12/12 14/14/14 13/13/13 
f 15/15/15 13/13/13 14/14/14 
f 14/14/14 16/16/16 15/15/15 
f 17/17/17 15/15/15 16/16/16 
f 16/16/16 18/18/18 17/17/17 
f 19/19/19 17/17/17 18/18/18 
f 18/18/18 20/20/20 19/19/19 
f 21/21/21 19/19/19 20/20/20 
f 20/20/20 22/22/22 21/21/21 
f 23/23/23 21/21/21 22/22/22 
f 22/22/22 24/24/24 23/23/23 
f 25/25/25 23/23/23 24/24/24 
f 24/24/24 26/26/26 25/25/25 
f 27/27/27 25/25/25 26/26/26 
f 26/26/26 28/28/28 27/27/27 
f 29/29/29 27/27/27 28/28/28 
f 28/28/28 30/30/30 29/29/29 
f 31/31/31 29/29/29 30/30/30 
f 30/30/30 32/32/32 31/31/31 
f 2/33/2 31/31/31 32/32/32 
f 32/32/32 3/34/3 2/33/2 
f 33/35/33 34/36/34 35/37/35 
f 36/38/36 37/39/37 38/40/38 
f 38/40/38 39/41/39 36/38/36 
f 37/39/37 40/42/40 41/43/41 
f 41/43/41 38/40/38 37/39/37 
f 40/42/40 42/44/42 43/45/43 
f 43/45/43 41/43/41 40/42/40 
f 42/44/42 44/46/44 45/47/45 
f 45/47/45 43/45/43 42/44/42 
f 44/46/44 46/48/46 47/49/47 
f 47/49/47 45/47/45 44/46/44 
f 46/48/46 48/50/48 49/51/49 
f 49/51/49 47/49/47 46/48/46 
f 48/50/48 50/52/50 51/53/51 
f 51/53/51 49/51/49 48/50/48 
f 50/52/50 52/54/52 53/55/53 
f 53/55/53 51/53/51 50/52/50 
f 52/54/52 54/56/54 55/57/55 
f 55/57/55 53/55/53 52/54/52 
f 54/56/54 56/58/56 57/59/57 
f 57/59/57 55/57/55 54/56/54 
f 56/58/56 34/60/34 58/61/58 
f 58/61/58 57/59/57 56/58/56 
f 34/60/34 33/62/33 59/63/59 
f 59/63/59 58/61/58 34/60/34 
f 33/62/33 60/64/60 61/65/61 
f 61/65/61 59/63/59 33/62/33 
f 60/64/60 62/66/62 63/67/63 
f 63/67/63 61/65/61 60/64/60 
f 62/66/62 64/68/64 65/69/65 
f 65/69/65 63/67/63 62/66/62 
f 64/68/64 36/70/36 39/71/39 
f 39/71/39 65/69/65 64/68/64 
f 39/41/39 38/40/38 66/72/66 
f 66/72/66 67/73/67 39/41/39 
f 38/40/38 41/43/41 68/74/68 
f 68/74/68 66/72/66 38/40/38 
f 41/43/41 43/45/43 69/75/69 
f 69/75/69 68/74/68 41/43/41 
f 43/45/43 45/47/45 70/76/70 
f 70/76/70 69/75/69 43/45/43 
f 45/47/45 47/49/47 71/77/71 
f 71/77/71 70/76/70 45/47/45 
f 47/49/47 49/51/49 72/78/72 
f 72/78/72 71/77/71 47/49/47 
f 49/51/49 51/53/51 73/79/73 
f 73/79/73 72/78/72 49/51/49 
f 51/53/51 53/55/53 74/80/74 
f 74/80/74 73/79/73 51/53/51 
f 53/55/53 55/57/55 75/81/75 
f 75/81/75 74/80/74 53/55/53 
f 55/57/55 57/59/57 76/82/76 
f 76/82/76 75/81/75 55/57/55 
f 57/59/57 58/61/58 77/83/77 
f 77/83/77 76/82/76 57/59/57 
f 58/61/58 59/63/59 78/84/78 
f 78/84/78 77/83/77 58/61/58 
f 59/63/59 61/65/61 79/85/79 
f 79/85/79 78/84/78 59/63/59 
f 61/65/61 63/67/63 80/86/80 
f 80/86/80 79/85/79 61/65/61 
f 63/67/63 65/69/65 81/87/81 
f 81/87/81 80/86/80 63/67/63 
f 65/69/65 39/71/39 67/88/67 
f 67/88/67 81/87/81 65/69/65 
f 67/73/67 66/72/66 31/31/31 
f 31/31/31 2/33/2 67/73/67 
f 66/72/66 68/74/68 29/29/29 
f 29/29/29 31/31/31 66/72/66 
f 68/74/68 69/75/69 27/27/27 
f 27/27/27 29/29/29 68/74/68 
f 69/75/69 70/76/70 25/25/25 
f 25/25/25 27/27/27 69/75/69 
f 70/76/70 71/77/71 23/23/23 
f 23/23/23 25/25/25 70/76/70 
f 71/77/71 72/78/72 21/21/21 
f 21/21/21 23/23/23 71/77/71 
f 72/78/72 73/79/73 19/19/19 
f 19/19/19 21/21/21 72/78/72 
f 73/79/73 74/80/74 17/17/17 
f 17/17/17 19/19/19 73/79/73 
f 74/80/74 75/81/75 15/15/15 
f 15/15/15 17/17/17 74/80/74 
f 75/81/75 76/82/76 13/13/13 
f 13/13/13 15/15/15 75/81/75 
f 76/82/76 77/83/77 11/11/11 
f 11/11/11 13/13/13 76/82/76 
f 77/83/77 78/84/78 9/9/9 
f 9/9/9 11/11/11 77/83/77 
f 78/84/78 79/85/79 7/7/7 
f 7/7/7 9/9/9 78/84/78 
f 79/85/79 80/86/80 5/5/5 
f 5/5/5 7/7/7 79/85/79 
f 80/86/80 81/87/81 1/1/1 
f 1/1/1 5/5/5 80/86/80 
f 81/87/81 67/88/67 2/2/2 
f 2/2/2 1/1/1 81/87/81 
f 50/89/50 48/90/48 35/37/35 
f 40/91/40 37/92/37 35/37/35 
f 62/93/62 60/94/60 35/37/35 
f 54/95/54 52/96/52 35/37/35 
f 36/97/36 64/98/64 35/37/35 
f 44/99/44 42/100/42 35/37/35 
f 34/36/34 56/101/56 35/37/35 
f 48/90/48 46/102/46 35/37/35 
f 37/92/37 36/97/36 35/37/35 
f 60/94/60 33/35/33 35/37/35 
f 52/96/52 50/89/50 35/37/35 
f 42/100/42 40/91/40 35/37/35 
f 64/98/64 62/93/62 35/37/35 
f 56/101/56 54/95/54 35/37/35 
f 46/102/46 44/99/44 35/37/35 
f 28/103/28 26/104/26 82/105/82 
f 26/104/26 24/106/24 82/105/82 
f 22/107/22 20/108/20 82/105/82 
f 18/109/18 16/110/16 82/105/82 
f 16/110/16 14/111/14 82/105/82 
f 8/112/8 6/113/6 82/105/82 
f 12/114/12 10/115/10 82/105/82 
f 32/116/32 30/117/30 82/105/82 
f 14/111/14 12/114/12 82/105/82 
f 4/118/4 3/119/3 82/105/82 
f 24/106/24 22/107/22 82/105/82 
f 3/119/3 32/116/32 82/105/82 
f 10/115/10 8/112/8 82/105/82 
f 20/108/20 18/109/18 82/105/82 
f 30/117/30 28/103/28 82/105/82 
f 6/113/6 4/118/4 82/105/82 
f 83/120/83 84/121/84 85/122/85 
f 85/122/85 86/123/86 83/120/83 
f 87/124/87 88/125/88 84/126/84 
f 84/126/84 89/127/89 87/124/87 
f 90/128/90 85/122/85 88/129/88 
f 88/129/88 91/130/91 90/128/90 
f 92/131/92 93/132/93 89/133/89 
f 89/133/89 94/134/94 92/131/92 
f 95/135/95 87/136/87 93/132/93 
f 93/132/93 96/137/96 95/135/95 
f 97/138/97 90/128/90 98/139/98 
f 98/139/98 99/140/99 97/138/97 
f 100/141/100 98/142/98 91/143/91 
f 91/143/91 95/144/95 100/141/100 
f 101/145/101 100/146/100 96/137/96 
f 96/137/96 102/147/102 101/145/101 
f 103/148/103 104/149/104 86/123/86 
f 86/123/86 97/138/97 103/148/103 
f 94/150/94 83/151/83 104/152/104 
f 104/152/104 105/153/105 94/150/94 
f 102/147/102 92/131/92 105/154/105 
f 105/154/105 106/155/106 102/147/102 
f 99/156/99 101/157/101 106/158/106 
f 106/158/106 103/159/103 99/156/99 
f 94/160/94 89/161/89 84/162/84 
f 84/162/84 83/163/83 94/160/94 
f 100/164/100 101/165/101 99/166/99 
f 99/166/99 98/167/98 100/164/100 
f 87/124/87 95/144/95 91/143/91 
f 91/143/91 88/125/88 87/124/87 
f 106/158/106 105/153/105 104/152/104 
f 104/152/104 103/159/103 106/158/106 
f 93/132/93 92/131/92 102/147/102 
f 102/147/102 96/137/96 93/132/93 
f 84/121/84 88/129/88 85/122/85 
f 93/132/93 87/136/87 89/133/89 
f 90/128/90 91/130/91 98/139/98 
f 100/146/100 95/135/95 96/137/96 
f 86/123/86 104/149/104 83/120/83 
f 94/134/94 105/154/105 92/131/92 
f 102/147/102 106/155/106 101/145/101 
f 99/140/99 103/148/103 97/138/97 
f 97/138/97 86/123/86 85/122/85 
f 85/122/85 90/128/90 97/138/97 
# 204 faces

